[img]http://img841.imageshack.us/img841/5935/thebaytownoutlaws.jpg[/img]

[b][size=200][color=black]PLOT[/color][/size][/b]

[code]When three redneck brothers agree to help a woman save 
her son from an abusive father, they become targets on the run from 
an odd cast of characters.[/code]

[b][size=200][color=black]IMDB[/color][/size][/b]

[code]http://www.imdb.com/title/tt1836944/[/code]

[b][size=200][color=black]MOVIE INFO[/color][/size][/b]

[code]The Baytown Outlaws [2012] DVDRip x264 AAC-V3nom

Format                                   : MPEG-4
Format profile                           : Base Media / Version 2
Codec ID                                 : mp42
File size                                : 349 MiB
Duration                                 : 1h 34mn
Overall bit rate mode                    : Variable
Overall bit rate                         : 516 Kbps
Encoded date                             : UTC 2012-12-04 11:23:54
Tagged date                              : UTC 2012-12-04 11:51:59

Video
ID                                       : 1
Format                                   : AVC
Format/Info                              : Advanced Video Codec
Format profile                           : Main@L2.1
Format settings, CABAC                   : Yes
Format settings, ReFrames                : 4 frames
Codec ID                                 : avc1
Codec ID/Info                            : Advanced Video Coding
Duration                                 : 1h 34mn
Bit rate mode                            : Variable
Bit rate                                 : 385 Kbps
Width                                    : 640 pixels
Height                                   : 272 pixels
Display aspect ratio                     : 2.35:1
Frame rate mode                          : Variable
Frame rate                               : 25.000 fps
Minimum frame rate                       : 25.000 fps
Maximum frame rate                       : 90 000.000 fps
Color space                              : YUV
Chroma subsampling                       : 4:2:0
Bit depth                                : 8 bits
Scan type                                : Progressive
Bits/(Pixel*Frame)                       : 0.088
Stream size                              : 260 MiB (74%)
Writing library                          : x264 core 112

Audio
ID                                       : 2
Format                                   : AAC
Format/Info                              : Advanced Audio Codec
Format profile                           : LC
Codec ID                                 : 40
Duration                                 : 1h 34mn
Bit rate mode                            : Variable
Bit rate                                 : 128 Kbps
Maximum bit rate                         : 259 Kbps
Channel(s)                               : 2 channels
Channel positions                        : Front: L R
Sampling rate                            : 48.0 KHz
Compression mode                         : Lossy
Delay relative to video                  : 80ms
Stream size                              : 86.6 MiB (25%)
Encoded date                             : UTC 2012-12-04 11:23:54
Tagged date                              : UTC 2012-12-04 11:51:58[/code]

[b][size=200][color=black]SOURCE[/color][/size][/b]

[code]The.Baytown.Outlaws.2012.DVDRiP.XViD-PSiG(Thanks)[/code]

[b][size=200][color=black]SCREENSHOTS[/color][/size][/b]

[img]http://img39.imageshack.us/img39/7793/thebaytownoutlaws2012dv.jpg[/img]

[img]http://kastatic.com/i2/users/133df62bbf28e62494bb17fe11078f1a.gif[/img][img]http://kastatic.com/i2/users/133df62bbf28e62494bb17fe11078f1a.gif[/img]